<svg width="36" height="36" viewBox="0 0 36 36" fill="none" xmlns="http://www.w3.org/2000/svg">
<path d="M29.25 36H6.75C3.02175 36 0 32.9782 0 29.25V6.75C0 3.02175 3.02175 0 6.75 0H29.25C32.9782 0 36 3.02175 36 6.75V29.25C36 32.9782 32.9782 36 29.25 36Z" fill="#4C76BE"/>
<path d="M21.0678 11.9891H22.7103V9.12712C22.4279 9.08775 21.4525 9 20.3174 9C17.9482 9 16.3259 10.4906 16.3259 13.2289V15.75H13.7114V18.9495H16.3259V27L19.531 27.0011V18.9506H22.0398L22.438 15.7511H19.5299V13.5473C19.531 12.6225 19.7797 11.9891 21.0678 11.9891Z" fill="white"/>
</svg>
