<svg width="36" height="36" viewBox="0 0 36 36" fill="none" xmlns="http://www.w3.org/2000/svg">
<path d="M27.9196 0H8.08036C3.6177 0 0 3.6177 0 8.08036V27.9196C0 32.3823 3.6177 36 8.08036 36H27.9196C32.3823 36 36 32.3823 36 27.9196V8.08036C36 3.6177 32.3823 0 27.9196 0Z" fill="url(#paint0_linear)"/>
<path d="M18 12.96C15.2141 12.96 12.96 15.2178 12.96 18C12.96 20.7845 15.2178 23.04 18 23.04C20.7858 23.04 23.04 20.7821 23.04 18C23.04 15.2141 20.7821 12.96 18 12.96ZM18 21.272C16.1927 21.272 14.728 19.8072 14.728 18C14.728 16.1927 16.1927 14.728 18 14.728C19.8072 14.728 21.272 16.1915 21.272 18C21.272 19.8072 19.8072 21.272 18 21.272Z" fill="white"/>
<path d="M21.8593 8.69937C20.1371 8.61865 15.8715 8.62216 14.147 8.69937C12.6319 8.77073 11.2959 9.13691 10.2195 10.2132C8.41899 12.0137 8.64947 14.4389 8.64947 17.9966C8.64947 21.6373 8.44707 24.0076 10.2195 25.78C12.0259 27.5863 14.4875 27.35 18.0031 27.35C22.312 27.35 27.0269 27.7629 27.3007 21.8526C27.3814 20.1293 27.3779 15.865 27.3007 14.1418C27.1462 10.8555 25.382 8.86316 21.8593 8.69937ZM24.5841 24.589C23.4036 25.7694 21.7668 25.6641 17.9786 25.6641C14.0792 25.6641 12.515 25.7215 11.3731 24.5773C10.0581 23.2693 10.2967 21.1682 10.2967 17.9849C10.2967 10.205 10.7425 10.3045 17.9669 10.3045L18.002 10.3279C25.7493 10.3279 25.6698 10.8298 25.6698 17.9966C25.6709 21.8503 25.7446 23.4238 24.5841 24.589Z" fill="white"/>
<path d="M22.6801 14.4002C23.2766 14.4002 23.7601 13.9167 23.7601 13.3202C23.7601 12.7238 23.2766 12.2402 22.6801 12.2402C22.0836 12.2402 21.6001 12.7238 21.6001 13.3202C21.6001 13.9167 22.0836 14.4002 22.6801 14.4002Z" fill="white"/>
<defs>
<linearGradient id="paint0_linear" x1="-2.29442" y1="37.9952" x2="40.1025" y2="-3.77832" gradientUnits="userSpaceOnUse">
<stop stop-color="#FED576"/>
<stop offset="0.26" stop-color="#F47133"/>
<stop offset="0.61" stop-color="#BC3081"/>
<stop offset="1" stop-color="#4C63D2"/>
</linearGradient>
</defs>
</svg>
