<svg width="36" height="36" viewBox="0 0 36 36" fill="none" xmlns="http://www.w3.org/2000/svg">
<path d="M29.25 36H6.75C3.02175 36 0 32.9782 0 29.25V6.75C0 3.02175 3.02175 0 6.75 0H29.25C32.9782 0 36 3.02175 36 6.75V29.25C36 32.9782 32.9782 36 29.25 36Z" fill="#F68633"/>
<path d="M12.5405 18.66C12.0803 19.5634 12.6023 19.9965 13.7937 20.7334C14.8062 21.3589 16.2057 21.5873 17.1035 21.6784C16.7356 22.0328 18.4231 20.4094 13.5631 25.0849C12.5326 26.0726 14.1908 27.6578 15.2213 26.6914L18.0091 24.0026C19.0756 25.0286 20.0993 26.013 20.7968 26.6948C21.8273 27.6645 23.4856 26.094 22.4663 25.0883C22.3898 25.0151 18.6886 21.4646 18.9147 21.6818C19.8237 21.5906 21.2018 21.3476 22.2031 20.7368L22.202 20.7356C23.3933 19.9943 23.9153 19.5623 23.4619 18.6589C23.1886 18.1459 22.4506 17.7173 21.4673 18.4586C21.4673 18.4586 20.1409 19.4745 18.0001 19.4745C15.8603 19.4745 14.5328 18.4586 14.5328 18.4586C13.553 17.715 12.8116 18.147 12.5405 18.66Z" fill="white"/>
<path d="M17.9988 18.1069C20.6076 18.1069 22.7373 16.0684 22.7373 13.5585C22.7373 11.0385 20.6076 9 17.9988 9C15.3899 9 13.2603 11.0385 13.2603 13.5585C13.2603 16.0684 15.3899 18.1069 17.9988 18.1069ZM17.9988 11.3096C19.2813 11.3096 20.3264 12.3154 20.3264 13.5585C20.3264 14.7915 19.2813 15.7972 17.9988 15.7972C16.7163 15.7972 15.6711 14.7915 15.6711 13.5585C15.6711 12.3142 16.7163 11.3096 17.9988 11.3096Z" fill="white"/>
</svg>
